<?xml version="1.0" encoding="UTF-8" standalone="no"?>
<svg
   xmlns:dc="http://purl.org/dc/elements/1.1/"
   xmlns:cc="http://creativecommons.org/ns#"
   xmlns:rdf="http://www.w3.org/1999/02/22-rdf-syntax-ns#"
   xmlns:svg="http://www.w3.org/2000/svg"
   xmlns="http://www.w3.org/2000/svg"
   xmlns:sodipodi="http://sodipodi.sourceforge.net/DTD/sodipodi-0.dtd"
   xmlns:inkscape="http://www.inkscape.org/namespaces/inkscape"
   enable-background="new 0 0 32 32"
   height="32px"
   id="Layer_1"
   version="1.1"
   viewBox="0 0 32 32"
   width="32px"
   xml:space="preserve"
   sodipodi:docname="cogwheel.svg"
   inkscape:version="0.92.2 (5c3e80d, 2017-08-06)"><metadata
     id="metadata17"><rdf:RDF><cc:Work
         rdf:about=""><dc:format>image/svg+xml</dc:format><dc:type
           rdf:resource="http://purl.org/dc/dcmitype/StillImage" /><dc:title></dc:title></cc:Work></rdf:RDF></metadata><defs
     id="defs15" /><sodipodi:namedview
     pagecolor="#ffffff"
     bordercolor="#666666"
     borderopacity="1"
     objecttolerance="10"
     gridtolerance="10"
     guidetolerance="10"
     inkscape:pageopacity="0"
     inkscape:pageshadow="2"
     inkscape:window-width="1920"
     inkscape:window-height="1137"
     id="namedview13"
     showgrid="false"
     inkscape:zoom="14.75"
     inkscape:cx="13.615398"
     inkscape:cy="25.831218"
     inkscape:window-x="1072"
     inkscape:window-y="664"
     inkscape:window-maximized="1"
     inkscape:current-layer="Layer_1" /><g
     id="g10"
     transform="matrix(1.1048332,0,0,1.0169492,-1.6771376,-0.27118644)"><g
       id="g4"><path
         d="m 29.08,20.045 c -0.644,-0.369 -0.969,-1.646 -0.723,-2.838 0,0 0,0 0,-1.148 0,-1.204 -0.01,-1.252 -0.01,-1.252 -0.265,-1.219 0.057,-2.524 0.713,-2.9 0.656,-0.375 0.687,-1.568 0.068,-2.651 L 28.458,8.085 C 27.84,7 26.789,6.423 26.123,6.801 25.459,7.177 24.114,6.853 23.136,6.078 L 21.026,4.865 C 19.873,4.389 18.928,3.382 18.928,2.625 18.928,1.868 17.906,1.25 16.659,1.25 h -1.313 c -1.248,0 -2.269,0.609 -2.269,1.354 0,0.744 -0.949,1.732 -2.107,2.194 L 8.762,6.008 C 7.786,6.786 6.472,7.128 5.842,6.768 5.21,6.409 4.188,7 3.568,8.084 L 2.899,9.255 c -0.62,1.083 -0.623,2.258 -0.008,2.609 0.615,0.352 0.897,1.637 0.625,2.854 0,0 -0.023,0.104 -0.023,1.339 0,1.18 0,1.184 0,1.184 0.259,1.22 -0.022,2.5 -0.626,2.846 -0.603,0.344 -0.59,1.512 0.029,2.596 l 0.669,1.172 c 0.619,1.084 1.618,1.689 2.218,1.348 0.601,-0.344 1.89,0.015 2.864,0.796 l 2.323,1.313 c 1.157,0.467 2.105,1.431 2.105,2.144 0,0.711 1.021,1.294 2.269,1.294 h 1.313 c 1.248,0 2.269,-0.592 2.269,-1.316 0,-0.724 0.942,-1.707 2.095,-2.188 l 2.226,-1.315 c 0.977,-0.778 2.293,-1.119 2.928,-0.76 0.633,0.361 1.658,-0.23 2.277,-1.314 l 0.671,-1.172 c 0.621,-1.085 0.602,-2.273 -0.043,-2.64 z m -13.2,3.939 c -4.444,0 -8.045,-3.602 -8.045,-8.045 0,-4.443 3.602,-8.045 8.045,-8.045 4.443,0 8.045,3.603 8.045,8.045 10e-4,4.444 -3.602,8.045 -8.045,8.045 z"
         id="path2"
         inkscape:connector-curvature="0"
         style="fill:#ffffff" /></g><g
       id="g8"><circle
         cx="15.962"
         cy="15.859"
         r="3.3559999"
         id="circle6"
         style="fill:#ffffff" /></g></g></svg>