<?xml version="1.0" encoding="UTF-8" standalone="no"?>
<svg
   xmlns:dc="http://purl.org/dc/elements/1.1/"
   xmlns:cc="http://creativecommons.org/ns#"
   xmlns:rdf="http://www.w3.org/1999/02/22-rdf-syntax-ns#"
   xmlns:svg="http://www.w3.org/2000/svg"
   xmlns="http://www.w3.org/2000/svg"
   xmlns:sodipodi="http://sodipodi.sourceforge.net/DTD/sodipodi-0.dtd"
   xmlns:inkscape="http://www.inkscape.org/namespaces/inkscape"
   version="1.0"
   width="128"
   height="128"
   viewBox="0 0 96 96"
   preserveAspectRatio="xMidYMid meet"
   id="svg6"
   sodipodi:docname="gandelf_icon.svg"
   inkscape:version="0.92.2 (5c3e80d, 2017-08-06)">
  <metadata
     id="metadata12">
    <rdf:RDF>
      <cc:Work
         rdf:about="">
        <dc:format>image/svg+xml</dc:format>
        <dc:type
           rdf:resource="http://purl.org/dc/dcmitype/StillImage" />
        <dc:title></dc:title>
      </cc:Work>
    </rdf:RDF>
  </metadata>
  <defs
     id="defs10" />
  <sodipodi:namedview
     pagecolor="#ffffff"
     bordercolor="#666666"
     borderopacity="1"
     objecttolerance="10"
     gridtolerance="10"
     guidetolerance="10"
     inkscape:pageopacity="0"
     inkscape:pageshadow="2"
     inkscape:window-width="1920"
     inkscape:window-height="1137"
     id="namedview8"
     showgrid="false"
     units="px"
     inkscape:zoom="2.2125"
     inkscape:cx="54.775518"
     inkscape:cy="114.87259"
     inkscape:window-x="1072"
     inkscape:window-y="554"
     inkscape:window-maximized="1"
     inkscape:current-layer="svg6"
     fit-margin-top="0"
     fit-margin-left="0"
     fit-margin-right="0"
     fit-margin-bottom="0" />
  <rect
     style="fill:#cc0000;fill-opacity:1;stroke:#499c54;stroke-width:0.06963449;stroke-miterlimit:4;stroke-dasharray:none;stroke-opacity:1"
     id="rect4506"
     width="95.930367"
     height="95.930367"
     x="0.034817245"
     y="0.034817245"
     ry="12.462868" />
  <g
     transform="matrix(0.00651093,0,0,-0.00651093,19.05898,89.661153)"
     id="g4"
     style="fill:#ffffff;fill-opacity:1;stroke:none">
    <path
       d="m 5540,12794 c -346,-43 -644,-202 -890,-475 -357,-397 -670,-891 -1069,-1689 C 3083,9631 2570,8352 2045,6800 l -62,-185 -204,-7 C 1099,6586 649,6469 339,6236 87,6046 -44,5810 14,5649 c 9,-27 10,-55 3,-113 -13,-102 9,-224 57,-322 27,-55 56,-90 128,-160 176,-169 358,-264 718,-375 195,-59 538,-139 600,-139 11,0 20,-3 20,-6 0,-3 -22,-31 -50,-61 -60,-66 -77,-116 -56,-166 7,-19 24,-41 36,-50 l 22,-16 -23,-33 c -12,-18 -106,-118 -209,-223 -102,-104 -211,-224 -242,-265 -158,-209 -245,-416 -292,-695 -36,-213 -46,-664 -15,-701 28,-34 69,-14 171,84 55,53 57,54 62,31 3,-13 19,-105 36,-204 41,-242 114,-566 151,-673 64,-178 170,-361 306,-525 78,-93 97,-106 124,-81 23,20 35,64 44,156 l 7,66 37,-21 c 20,-12 137,-121 261,-242 294,-288 417,-385 682,-538 149,-86 492,-257 516,-257 30,0 38,22 46,120 11,131 29,170 81,170 9,0 44,-25 78,-55 199,-178 455,-310 669,-345 240,-39 531,46 820,237 103,69 287,210 418,322 52,45 101,80 109,79 10,-2 22,-41 38,-128 26,-140 46,-195 81,-218 22,-15 25,-13 73,34 28,27 79,83 113,124 60,72 389,515 432,583 22,36 51,40 72,10 7,-10 32,-52 55,-93 48,-86 83,-109 116,-75 53,55 231,386 322,600 23,55 68,174 99,265 39,114 62,166 73,168 10,2 29,-14 49,-44 49,-71 88,-114 104,-114 92,0 114,804 34,1261 -62,359 -183,644 -334,788 -53,51 -48,64 22,59 69,-5 167,-47 230,-100 51,-41 102,-69 114,-62 73,46 -284,515 -530,697 l -64,47 h 54 c 29,0 125,-7 213,-15 201,-19 307,-19 518,0 338,30 572,76 785,154 350,129 591,363 761,735 25,55 58,117 73,137 128,167 39,309 -231,364 -90,18 -93,18 -204,-32 -121,-54 -232,-73 -454,-80 -241,-7 -476,11 -858,67 -241,35 -671,112 -678,121 -2,2 -34,283 -71,624 -68,629 -124,1149 -356,3280 -71,655 -142,1301 -156,1437 -15,137 -24,251 -20,255 13,14 287,15 386,3 112,-14 225,-48 297,-90 29,-17 108,-72 175,-123 232,-176 351,-242 558,-311 125,-41 290,-86 290,-79 0,3 -42,80 -94,172 -51,91 -135,245 -186,341 -269,508 -425,741 -648,972 -118,122 -259,240 -342,286 -66,37 -215,88 -314,108 -72,14 -321,26 -386,18 z"
       id="path2"
       inkscape:connector-curvature="0"
       style="fill:#ffffff;fill-opacity:1" />
  </g>
</svg>
