<?xml version="1.0" encoding="UTF-8" standalone="no"?>
<svg
   xmlns:dc="http://purl.org/dc/elements/1.1/"
   xmlns:cc="http://creativecommons.org/ns#"
   xmlns:rdf="http://www.w3.org/1999/02/22-rdf-syntax-ns#"
   xmlns:svg="http://www.w3.org/2000/svg"
   xmlns="http://www.w3.org/2000/svg"
   xmlns:sodipodi="http://sodipodi.sourceforge.net/DTD/sodipodi-0.dtd"
   xmlns:inkscape="http://www.inkscape.org/namespaces/inkscape"
   enable-background="new 0 0 32 32"
   height="32"
   id="Layer_1"
   version="1.1"
   viewBox="0 0 32 32"
   width="32"
   xml:space="preserve"
   sodipodi:docname="open_logger_white.svg"
   inkscape:version="0.92.2 (5c3e80d, 2017-08-06)"><metadata
     id="metadata17"><rdf:RDF><cc:Work
         rdf:about=""><dc:format>image/svg+xml</dc:format><dc:type
           rdf:resource="http://purl.org/dc/dcmitype/StillImage" /><dc:title></dc:title></cc:Work></rdf:RDF></metadata><defs
     id="defs15" /><sodipodi:namedview
     pagecolor="#ffffff"
     bordercolor="#666666"
     borderopacity="1"
     objecttolerance="10"
     gridtolerance="10"
     guidetolerance="10"
     inkscape:pageopacity="0"
     inkscape:pageshadow="2"
     inkscape:window-width="1131"
     inkscape:window-height="684"
     id="namedview13"
     showgrid="false"
     inkscape:zoom="14.481547"
     inkscape:cx="14.685303"
     inkscape:cy="14.246027"
     inkscape:window-x="1445"
     inkscape:window-y="845"
     inkscape:window-maximized="0"
     inkscape:current-layer="Layer_1"
     showguides="false" /><g
     id="g10"
     transform="matrix(1.3196094,0,0,1.4285034,-5.6086038,-6.8567704)"><path
       d="M 15.42,7.221 C 15.42,6.27 14.649,5.5 13.699,5.5 H 6.729 C 5.778,5.5 5.008,6.271 5.008,7.221 v 6.103 c 0,0.951 0.771,1.721 1.721,1.721 H 13.7 c 0.951,0 1.721,-0.771 1.721,-1.721 V 7.221 Z"
       id="path2"
       inkscape:connector-curvature="0"
       style="fill:#ffffff;fill-opacity:1" /><path
       d="M 27.742,7.221 C 27.742,6.27 26.972,5.5 26.021,5.5 H 19.05 c -0.951,0 -1.721,0.771 -1.721,1.721 v 6.103 c 0,0.951 0.77,1.721 1.721,1.721 h 6.971 c 0.951,0 1.721,-0.771 1.721,-1.721 z"
       id="path4"
       inkscape:connector-curvature="0"
       style="fill:#ffffff;fill-opacity:1" /><path
       d="m 15.42,18.676 c 0,-0.951 -0.771,-1.721 -1.721,-1.721 h -6.97 c -0.951,0 -1.721,0.77 -1.721,1.721 v 6.104 c 0,0.95 0.771,1.721 1.721,1.721 H 13.7 c 0.951,0 1.721,-0.771 1.721,-1.721 v -6.104 z"
       id="path6"
       inkscape:connector-curvature="0"
       style="fill:#ffffff;fill-opacity:1" /><path
       d="m 27.742,18.676 c 0,-0.951 -0.77,-1.721 -1.721,-1.721 H 19.05 c -0.951,0 -1.721,0.77 -1.721,1.721 v 6.104 c 0,0.95 0.77,1.721 1.721,1.721 h 6.971 c 0.951,0 1.721,-0.771 1.721,-1.721 z"
       id="path8"
       inkscape:connector-curvature="0"
       style="fill:#ffffff;fill-opacity:1" /></g></svg>