<?xml version="1.0" encoding="UTF-8" standalone="no"?>
<svg
   xmlns:dc="http://purl.org/dc/elements/1.1/"
   xmlns:cc="http://creativecommons.org/ns#"
   xmlns:rdf="http://www.w3.org/1999/02/22-rdf-syntax-ns#"
   xmlns:svg="http://www.w3.org/2000/svg"
   xmlns="http://www.w3.org/2000/svg"
   xmlns:sodipodi="http://sodipodi.sourceforge.net/DTD/sodipodi-0.dtd"
   xmlns:inkscape="http://www.inkscape.org/namespaces/inkscape"
   enable-background="new 0 0 32 32"
   height="32px"
   id="Layer_1"
   version="1.1"
   viewBox="0 0 32 32"
   width="32px"
   xml:space="preserve"
   sodipodi:docname="search.svg"
   inkscape:version="0.92.2 (5c3e80d, 2017-08-06)"><metadata
     id="metadata12"><rdf:RDF><cc:Work
         rdf:about=""><dc:format>image/svg+xml</dc:format><dc:type
           rdf:resource="http://purl.org/dc/dcmitype/StillImage" /><dc:title></dc:title></cc:Work></rdf:RDF></metadata><defs
     id="defs10" /><sodipodi:namedview
     pagecolor="#ffffff"
     bordercolor="#666666"
     borderopacity="1"
     objecttolerance="10"
     gridtolerance="10"
     guidetolerance="10"
     inkscape:pageopacity="0"
     inkscape:pageshadow="2"
     inkscape:window-width="1920"
     inkscape:window-height="1137"
     id="namedview8"
     showgrid="false"
     inkscape:zoom="14.75"
     inkscape:cx="19.634241"
     inkscape:cy="12.333663"
     inkscape:window-x="1072"
     inkscape:window-y="664"
     inkscape:window-maximized="1"
     inkscape:current-layer="Layer_1" /><g
     id="Search"
     inkscape:label="Search"
     transform="matrix(1.0512023,0,0,1.0439185,-0.62594718,-0.42612317)"><path
       d="m 16.522,13.348 c 1.746,-3.062 1.32,-7.023 -1.29,-9.634 -3.132,-3.131 -8.206,-3.13 -11.337,0 -3.131,3.13 -3.131,8.206 0,11.336 2.572,2.573 6.457,3.027 9.498,1.371 l 4.512,4.513 3.102,-3.104 z m -3.107,-0.117 c -2.127,2.127 -5.575,2.127 -7.701,0 -2.127,-2.125 -2.127,-5.573 0,-7.699 2.126,-2.127 5.574,-2.127 7.701,0 2.126,2.126 2.126,5.574 0,7.699 z"
       id="path2"
       style="fill:#ffffff;fill-opacity:1"
       inkscape:connector-curvature="0" /><path
       d="m 29.733,24.832 -5.775,-5.775 c -0.471,-0.472 -1.241,-0.472 -1.711,0 l -3.209,3.208 c -0.47,0.47 -0.47,1.241 0,1.711 l 5.775,5.774 c 0.471,0.472 1.24,0.472 1.711,0 l 3.209,-3.207 c 0.47,-0.473 0.47,-1.241 0,-1.711 z"
       id="path4"
       style="fill:#ffffff;fill-opacity:1"
       inkscape:connector-curvature="0" /></g></svg>