<?xml version="1.0" encoding="UTF-8" standalone="no"?>
<!-- Generator: Adobe Illustrator 19.0.0, SVG Export Plug-In . SVG Version: 6.00 Build 0)  -->

<svg
   xmlns:dc="http://purl.org/dc/elements/1.1/"
   xmlns:cc="http://creativecommons.org/ns#"
   xmlns:rdf="http://www.w3.org/1999/02/22-rdf-syntax-ns#"
   xmlns:svg="http://www.w3.org/2000/svg"
   xmlns="http://www.w3.org/2000/svg"
   xmlns:sodipodi="http://sodipodi.sourceforge.net/DTD/sodipodi-0.dtd"
   xmlns:inkscape="http://www.inkscape.org/namespaces/inkscape"
   version="1.1"
   id="Capa_1"
   x="0px"
   y="0px"
   viewBox="0 0 32 32.000001"
   xml:space="preserve"
   sodipodi:docname="wireshark.svg"
   width="32"
   height="32"
   inkscape:version="0.92.2 (5c3e80d, 2017-08-06)"><metadata
     id="metadata41"><rdf:RDF><cc:Work
         rdf:about=""><dc:format>image/svg+xml</dc:format><dc:type
           rdf:resource="http://purl.org/dc/dcmitype/StillImage" /><dc:title></dc:title></cc:Work></rdf:RDF></metadata><defs
     id="defs39" /><sodipodi:namedview
     pagecolor="#ffffff"
     bordercolor="#666666"
     borderopacity="1"
     objecttolerance="10"
     gridtolerance="10"
     guidetolerance="10"
     inkscape:pageopacity="0"
     inkscape:pageshadow="2"
     inkscape:window-width="1920"
     inkscape:window-height="1137"
     id="namedview37"
     showgrid="false"
     units="px"
     inkscape:zoom="10.898103"
     inkscape:cx="23.538246"
     inkscape:cy="5.8782186"
     inkscape:window-x="1072"
     inkscape:window-y="664"
     inkscape:window-maximized="1"
     inkscape:current-layer="Capa_1" /><g
     id="g4"
     transform="matrix(0.06122449,0,0,0.06122449,1,0.99987746)"><path
       d="M 393.395,342.163 C 390.464,245.175 361.613,171.385 307.479,122.702 227.595,50.896 122.983,61.069 118.57,61.577 l -19.358,2.049 6.552,18.326 c 49.206,137.757 12.475,278.104 2.362,311.483 -31.184,9.406 -56.536,7.28 -86.703,-22.255 L 0,393.081 c 27.211,26.643 52.628,36.112 77.894,36.112 28.737,0 57.295,-12.267 88.067,-25.491 35.469,-15.244 75.68,-32.522 127.695,-37.788 127.919,-13 167.966,54.064 169.611,56.921 L 490,407.876 c -1.421,-2.573 -26.886,-46.748 -96.605,-65.713 z m -102.821,-6.736 c -56.712,5.745 -101.067,24.803 -136.7,40.122 -3.447,1.481 -6.809,2.925 -10.094,4.322 13.613,-53.678 33.755,-168.749 -2.577,-288.254 31.565,0.793 95.532,8.512 146.035,54.094 46.229,41.719 71.485,105.676 75.268,190.301 -20.843,-2.766 -44.7,-3.332 -71.932,-0.585 z"
       id="path2"
       inkscape:connector-curvature="0" /></g><g
     id="g6"
     transform="translate(0,-461.72302)" /><g
     id="g8"
     transform="translate(0,-461.72302)" /><g
     id="g10"
     transform="translate(0,-461.72302)" /><g
     id="g12"
     transform="translate(0,-461.72302)" /><g
     id="g14"
     transform="translate(0,-461.72302)" /><g
     id="g16"
     transform="translate(0,-461.72302)" /><g
     id="g18"
     transform="translate(0,-461.72302)" /><g
     id="g20"
     transform="translate(0,-461.72302)" /><g
     id="g22"
     transform="translate(0,-461.72302)" /><g
     id="g24"
     transform="translate(0,-461.72302)" /><g
     id="g26"
     transform="translate(0,-461.72302)" /><g
     id="g28"
     transform="translate(0,-461.72302)" /><g
     id="g30"
     transform="translate(0,-461.72302)" /><g
     id="g32"
     transform="translate(0,-461.72302)" /><g
     id="g34"
     transform="translate(0,-461.72302)" /></svg>